<?xml version="1.0" encoding="UTF-8"?>
<svg version="1.1" xmlns="http://www.w3.org/2000/svg" width="1024" height="1024">
<path d="M0 0 C337.92 0 675.84 0 1024 0 C1024 337.92 1024 675.84 1024 1024 C686.08 1024 348.16 1024 0 1024 C0 686.08 0 348.16 0 0 Z " fill="#FB7315" transform="translate(0,0)"/>
<path d="M0 0 C1.10480713 0.1848999 1.10480713 0.1848999 2.23193359 0.37353516 C33.1476152 5.76303671 61.5866597 22.47873294 84 44 C85.33611328 45.25876953 85.33611328 45.25876953 86.69921875 46.54296875 C115.84664977 74.71475354 134.04025752 116.03280509 136.12744141 156.46899414 C136.37594536 161.35223163 136.37594536 161.35223163 139.109375 165.26953125 C139.98078125 165.77871094 140.8521875 166.28789062 141.75 166.8125 C155.32671532 175.04389177 163.9091071 187.08937983 168.875 202.125 C172.74323931 218.0584619 170.04414364 234.85382664 161.9453125 248.93359375 C149.91682262 267.89416515 135.40248252 275.885005 114 282 C103.77 282 93.54 282 83 282 C83 239.76 83 197.52 83 154 C91.91 154 100.82 154 110 154 C107.68656915 119.29853725 91.05653657 86.87187931 65.3203125 63.57421875 C62.60062739 61.3024343 59.82461588 59.13986051 57 57 C56.43941895 56.56445801 55.87883789 56.12891602 55.30126953 55.68017578 C33.22126871 38.54283203 6.97105974 26.94341563 -21.3359375 26.796875 C-22.21416168 26.79117493 -23.09238586 26.78547485 -23.9972229 26.77960205 C-25.85116391 26.77020212 -27.70512124 26.76363813 -29.55908203 26.75976562 C-32.33267219 26.75014679 -35.10549214 26.71911149 -37.87890625 26.6875 C-68.40511934 26.5059474 -96.88650235 34.86638168 -121 54 C-122.00933594 54.79921875 -123.01867187 55.5984375 -124.05859375 56.421875 C-126.73281593 58.5844753 -129.37300585 60.78042336 -132 63 C-133.08861328 63.90298828 -133.08861328 63.90298828 -134.19921875 64.82421875 C-137.56975173 67.51522477 -137.56975173 67.51522477 -140 71 C-140.66 71 -141.32 71 -142 71 C-142.2578125 71.57234375 -142.515625 72.1446875 -142.78125 72.734375 C-144.11448959 75.21283322 -145.67375354 77.10939964 -147.5 79.25 C-165.22081403 101.12715041 -174.47744284 126.08645203 -176 154 C-168.08 154 -160.16 154 -152 154 C-152 195.58 -152 237.16 -152 280 C-173.3372677 283.55621128 -193.22927496 280.0742975 -211.1328125 267.86328125 C-224.97620557 257.12404735 -233.79975207 243.2400453 -237 226 C-238.72152193 208.51214149 -234.96768135 192.7680744 -224.125 178.6875 C-215.50166041 168.45753061 -215.50166041 168.45753061 -210.0456543 166.18652344 C-207.54500001 165.02484891 -205.90513141 164.01050719 -204 162 C-202.50497686 157.37226977 -202.19685193 152.70575305 -201.8125 147.875 C-201.53415274 145.14876457 -201.22656213 142.42608212 -200.91796875 139.703125 C-200.84501587 139.0334671 -200.77206299 138.3638092 -200.69689941 137.67385864 C-196.11477589 96.93878054 -171.32377671 59.19766411 -140.5625 33.25 C-128.23201731 23.55791754 -115.37347647 16.24891286 -101 10 C-99.86820313 9.50628906 -98.73640625 9.01257813 -97.5703125 8.50390625 C-88.32479416 4.72806479 -78.71147639 2.24891069 -69 0 C-68.28779297 -0.16806152 -67.57558594 -0.33612305 -66.84179688 -0.50927734 C-45.02441593 -5.46077608 -21.86395287 -3.84529017 0 0 Z " fill="#FE9A10" transform="translate(546,212)"/>
<path d="M0 0 C11.62705942 7.00525148 17.83260997 17.10745295 21.109375 30.125 C24.78785263 47.59274349 22.71340513 65.82615195 14.25 81.5 C8.02530986 90.95643463 -0.41141582 96.34185159 -11.1875 99.25 C-26.42029254 102.20601394 -36.82367663 98.90579402 -50 91 C-50 106.84 -50 122.68 -50 139 C-57.92 139 -65.84 139 -74 139 C-74 92.8 -74 46.6 -74 -1 C-66.08 -1 -58.16 -1 -50 -1 C-49.67 1.97 -49.34 4.94 -49 8 C-48.34 7.278125 -47.68 6.55625 -47 5.8125 C-35.06973723 -6.08396599 -14.68087502 -8.08075514 0 0 Z " fill="#FEFDFD" transform="translate(271,620)"/>
<path d="M0 0 C10.73284431 7.36083958 17.3348835 17.77254881 20.33837891 30.34838867 C21.10400278 34.88483049 21.01259594 39.43517912 20.9765625 44.0234375 C20.98816406 45.48910156 20.98816406 45.48910156 21 46.984375 C20.96327488 60.79302026 17.59860771 73.97573156 7.7890625 84.2109375 C-5.48799978 96.18331736 -20.08281595 97.36316413 -37.2734375 96.6484375 C-47.78123488 95.74945343 -57.08115783 89.90127334 -64.19921875 82.3359375 C-73.25886806 70.59763482 -75.63163567 58.31071212 -75.6484375 43.8359375 C-75.67292969 42.73701172 -75.69742187 41.63808594 -75.72265625 40.50585938 C-75.77037154 27.01038446 -71.43523906 16.22290793 -62.171875 6.42578125 C-45.64275631 -9.19803235 -19.41909568 -11.54468575 0 0 Z " fill="#FEFDFC" transform="translate(377.2734375,623.3515625)"/>
<path d="M0 0 C0.70769531 -0.01224609 1.41539062 -0.02449219 2.14453125 -0.03710938 C12.58906278 -0.06575069 22.78773417 3.36359658 30.8359375 10.16015625 C38.52944711 18.28108306 43.08144907 28.13258583 44.5 39.1875 C41.98056604 39.69562114 39.45983127 40.19414534 36.9375 40.6875 C36.23302734 40.83058594 35.52855469 40.97367188 34.80273438 41.12109375 C30.28109762 41.99624925 26.10512972 42.33273405 21.5 42.1875 C21.13648438 41.37925781 20.77296875 40.57101562 20.3984375 39.73828125 C16.54794005 31.5535059 13.8084536 26.65177494 5.125 23.375 C-2.93420619 21.02047398 -9.81224997 22.07799698 -17.5 25.1875 C-21.04267003 27.47547439 -22.93530328 29.3062393 -24.5 33.1875 C-24.92803506 36.02819207 -24.92803506 36.02819207 -24.9375 39.0625 C-24.97746094 40.07054687 -25.01742187 41.07859375 -25.05859375 42.1171875 C-24.32740033 46.13619468 -22.51400028 48.56036262 -19.5 51.1875 C-16.43444642 52.97004826 -16.43444642 52.97004826 -12.9375 54.1875 C-12.2969165 54.43185791 -11.65633301 54.67621582 -10.99633789 54.92797852 C-5.55937178 56.94403366 -0.00783749 58.52570079 5.5625 60.125 C19.09308599 64.05216071 33.34567384 69.37191963 41.1875 81.87890625 C46.44441186 92.13884502 47.01827853 103.26684214 44.8515625 114.5703125 C41.54925885 124.47722345 35.45304292 131.38670828 26.54296875 136.68359375 C10.54970484 144.58783843 -8.57356498 145.57873231 -25.5 140.1875 C-39.10411558 134.50140482 -48.71078102 124.55767424 -54.4375 111 C-55.62092568 106.75359022 -55.57732985 103.56800878 -55.5 99.1875 C-52.77172635 98.68215273 -50.04255306 98.18306155 -47.3125 97.6875 C-46.54357422 97.54441406 -45.77464844 97.40132812 -44.98242188 97.25390625 C-41.10578227 96.55511285 -37.458529 95.99710983 -33.5 96.1875 C-33.0875 97.11691406 -32.675 98.04632812 -32.25 99.00390625 C-28.03622301 108.15993533 -24.03952819 114.06522047 -15.0625 119.125 C-7.34973273 121.59369887 3.54874976 121.53160313 11.25 119.0625 C15.60148851 116.55202586 18.22550742 113.73648515 20.5 109.1875 C21.24951026 102.82737008 21.19206107 97.26285438 17.203125 92.02880859 C11.14139969 85.47526325 1.95837657 83.70099792 -6.375 81.6875 C-21.53719765 77.99844376 -37.02651572 72.88603796 -46.1875 59.4375 C-51.35657974 50.74109226 -51.54625391 40.35127293 -49.875 30.5625 C-47.42675938 20.9749843 -39.79952036 12.90467795 -31.75 7.5 C-21.73298883 1.61791786 -11.41949608 0.01040027 0 0 Z " fill="#FEFDFC" transform="translate(139.5,577.8125)"/>
<path d="M0 0 C7.37024823 6.70899231 9.62018747 15.97417385 10.38876343 25.67541504 C10.56364081 29.91149669 10.58399414 34.14760479 10.6015625 38.38671875 C10.61844862 39.93899925 10.636604 41.4912664 10.65596008 43.04351807 C10.70304015 47.08752264 10.73311893 51.13147311 10.75939941 55.17565918 C10.78941946 59.31903772 10.83587484 63.46223044 10.88085938 67.60546875 C10.96641346 75.70435011 11.03244584 83.80321386 11.08984375 91.90234375 C2.83984375 91.90234375 -5.41015625 91.90234375 -13.91015625 91.90234375 C-14.40515625 88.43734375 -14.40515625 88.43734375 -14.91015625 84.90234375 C-15.98265625 85.64484375 -17.05515625 86.38734375 -18.16015625 87.15234375 C-28.96743251 93.79569571 -40.27012291 95.49584653 -52.76953125 93.4296875 C-61.98008078 91.04123754 -68.6329012 86.24435169 -73.71875 78.24609375 C-77.69744622 70.41915037 -78.52975951 62.05058833 -75.8828125 53.63671875 C-72.07238455 45.23477789 -66.65139715 39.74430186 -58.16015625 36.08984375 C-47.86625883 32.92053045 -37.27884258 32.62550622 -26.59765625 32.77734375 C-25.36853516 32.78636719 -24.13941406 32.79539062 -22.87304688 32.8046875 C-19.88520081 32.82793922 -16.89779141 32.86061252 -13.91015625 32.90234375 C-14.16705806 30.83806218 -14.44128671 28.77593281 -14.72265625 26.71484375 C-14.87347656 25.56628906 -15.02429688 24.41773438 -15.1796875 23.234375 C-16.20239992 18.56927503 -17.58299906 15.79427145 -21.56640625 13.1171875 C-25.66048511 11.62973595 -29.09229426 11.42310695 -33.41015625 11.46484375 C-34.14363281 11.44486328 -34.87710938 11.42488281 -35.6328125 11.40429688 C-40.81925252 11.40893591 -43.83567306 12.44241308 -47.91015625 15.90234375 C-49.16081075 17.67896455 -49.16081075 17.67896455 -49.84765625 19.52734375 C-51.91015625 22.90234375 -51.91015625 22.90234375 -55.28515625 24.33984375 C-63.72587257 25.64961007 -63.72587257 25.64961007 -67.68359375 23.15234375 C-68.54210937 22.40984375 -69.400625 21.66734375 -70.28515625 20.90234375 C-71.15914062 20.15984375 -72.033125 19.41734375 -72.93359375 18.65234375 C-73.58585938 18.07484375 -74.238125 17.49734375 -74.91015625 16.90234375 C-74.0838284 10.06972244 -69.62540803 5.62436059 -64.91015625 0.90234375 C-46.70795331 -12.78018058 -18.39282028 -14.10016855 0 0 Z " fill="#FEFDFC" transform="translate(777.91015625,626.09765625)"/>
<path d="M0 0 C8.62170533 7.97190769 14.50200492 18.31563839 16 30 C16 35.94 16 41.88 16 48 C-6.77 48 -29.54 48 -53 48 C-49.55589401 61.16516998 -49.55589401 61.16516998 -40 70 C-33.21766076 72.62962097 -25.86526208 72.65324439 -18.98828125 70.31640625 C-13.9365123 67.85079234 -11.56195588 63.8641743 -9 59 C-3.73378394 59.59578777 0.94408019 60.81308796 5.9375 62.5625 C6.62134766 62.79646484 7.30519531 63.03042969 8.00976562 63.27148438 C9.67508501 63.84211829 11.33782493 64.42027098 13 65 C11.74311328 73.23477505 6.36080232 79.3584465 0.05078125 84.50390625 C-10.95868648 92.53557509 -24.98756312 94.44236786 -38.25390625 92.53125 C-50.760041 90.05069435 -62.10673499 83.98234364 -69.78515625 73.58203125 C-78.5402244 59.7072918 -79.66182128 44.2465605 -76.875 28.3125 C-73.62646982 13.97106262 -66.46132144 3.58526682 -54.0625 -4.4375 C-48.94509483 -7.29035265 -43.70091284 -8.77253073 -38 -10 C-37.030625 -10.2475 -36.06125 -10.495 -35.0625 -10.75 C-22.12346254 -11.80624796 -10.04599441 -8.25470497 0 0 Z " fill="#FEFDFB" transform="translate(574,627)"/>
<path d="M0 0 C7.59 0 15.18 0 23 0 C23.33 26.07 23.66 52.14 24 79 C32.21806584 70.06390845 32.21806584 70.06390845 40.2578125 60.9921875 C42.31500399 58.63979365 44.40596915 56.31965034 46.5 54 C49.93289102 50.19677998 53.32643307 46.36287677 56.6875 42.49609375 C57.43549316 41.64347059 58.19798378 40.80201622 59 40 C61.14558827 39.91224395 63.29404421 39.89304781 65.44140625 39.90234375 C66.74658203 39.90556641 68.05175781 39.90878906 69.39648438 39.91210938 C70.7851569 39.92046599 72.17382877 39.92893095 73.5625 39.9375 C74.95507656 39.94251334 76.34765481 39.94707653 77.74023438 39.95117188 C81.1601987 39.96300566 84.58007844 39.9794912 88 40 C86.72494758 42.80428566 85.42022876 44.81604371 83.20703125 46.953125 C82.66312744 47.48542725 82.11922363 48.01772949 81.55883789 48.56616211 C80.98254639 49.12182861 80.40625488 49.67749512 79.8125 50.25 C74.51533004 55.43098388 74.51533004 55.43098388 69.5625 60.9375 C64.13916346 67.34312454 57.96693531 73.10754793 52 79 C53.41982072 81.92875946 54.93304883 84.29340326 57 86.8125 C60.07211847 90.68922093 62.86682355 94.70791725 65.5859375 98.8359375 C66.47202877 100.17345856 67.35843227 101.51077281 68.24511719 102.84790039 C68.69914917 103.53328888 69.15318115 104.21867737 69.62097168 104.92483521 C71.41044332 107.61763599 73.21470729 110.30029852 75.02105713 112.98179626 C76.78377856 115.59868839 78.54157823 118.21887035 80.29931641 120.83911133 C81.19944689 122.17902931 82.10119647 123.51786075 83.00439453 124.85571289 C84.33272938 126.82414942 85.65521094 128.79640265 86.9765625 130.76953125 C87.38266754 131.36836624 87.78877258 131.96720123 88.20718384 132.58418274 C91 136.77226098 91 136.77226098 91 139 C68.21849778 141.49345004 68.21849778 141.49345004 61.99755859 137.81640625 C58.73563142 134.37380839 57.11688291 130.00482683 55.29101562 125.68945312 C52.6512845 120.19034608 49.00278479 115.27085382 45.5625 110.25 C44.18764032 108.19348454 42.81387285 106.13623831 41.44140625 104.078125 C39.37119904 100.98593819 37.25859943 97.95767951 35 95 C27.77663558 99.75637433 27.77663558 99.75637433 23.35943604 106.9395752 C22.45457795 112.13734448 22.65658801 117.37213365 22.8125 122.625 C22.81947156 124.21743385 22.82146388 125.80989766 22.81835938 127.40234375 C22.81231579 131.27426537 22.90812849 135.12430422 23 139 C15.41 139 7.82 139 0 139 C0 93.13 0 47.26 0 0 Z " fill="#FEFEFD" transform="translate(410,579)"/>
<path d="M0 0 C4.05494035 3.58343566 5.52948403 6.7915971 6.06781673 12.18597317 C6.08548707 13.64596689 6.08690888 15.10621538 6.07518005 16.56626892 C6.08056559 17.37499988 6.08595113 18.18373083 6.09149987 19.01696879 C6.10577162 21.71841859 6.09867772 24.41937785 6.09155273 27.12084961 C6.09725671 29.06109511 6.10422107 31.00133725 6.11235046 32.9415741 C6.13029381 38.20603211 6.12911127 43.47032355 6.12340808 48.73480296 C6.12031799 53.1310021 6.12640668 57.52716917 6.13244683 61.92336375 C6.14649426 72.29488356 6.14492887 82.66632102 6.13354492 93.0378418 C6.12206274 103.73519943 6.13614064 114.43230638 6.1629414 125.12963098 C6.18509693 134.31706442 6.19173612 143.50441917 6.18586498 152.69187742 C6.18249396 158.17780883 6.18492029 163.66357953 6.20211601 169.14948845 C6.21758068 174.30829458 6.21363474 179.46672927 6.19481087 184.62552071 C6.19112371 186.51733962 6.19423713 188.40918602 6.20469666 190.30097961 C6.21789971 192.8866634 6.20636565 195.47111628 6.18870544 198.05674744 C6.19831045 198.80267259 6.20791546 199.54859774 6.21781152 200.31712669 C6.14032427 205.84347277 4.72108388 208.91790112 1.6875 213.375 C-2.59592049 216.53074448 -8.24574516 216.11451191 -13.3125 215.375 C-16.48704605 213.72005254 -18.68925639 211.62148722 -20.3125 208.375 C-20.41908064 205.71615239 -20.46471277 203.08299075 -20.46640015 200.42350769 C-20.4707824 199.59228199 -20.47516465 198.76105629 -20.4796797 197.90464193 C-20.49309557 195.10333653 -20.49925278 192.30206261 -20.50537109 189.50073242 C-20.51326979 187.49872189 -20.5215386 185.49671279 -20.53015137 183.4947052 C-20.55639585 176.90664027 -20.5716803 170.31856889 -20.5859375 163.73046875 C-20.59129597 161.4652487 -20.59667347 159.20002869 -20.60206985 156.93480873 C-20.62370112 147.51484701 -20.64243935 138.09488702 -20.65369225 128.67490673 C-20.66994119 115.16014629 -20.70313924 101.64567292 -20.76009309 88.13102072 C-20.79874662 78.6362886 -20.81831944 69.14163342 -20.82361281 59.64682466 C-20.82727223 53.97191546 -20.83935646 48.29731228 -20.87171555 42.62248802 C-20.90171572 37.28479864 -20.90813672 31.94760173 -20.89633179 26.60984612 C-20.89611039 24.64944374 -20.90447027 22.68901905 -20.92198563 20.72869492 C-20.94458243 18.05434687 -20.93642709 15.38179896 -20.92050171 12.70744324 C-20.9343838 11.92961823 -20.94826588 11.15179323 -20.96256864 10.35039777 C-20.90321713 6.31201036 -20.47726021 4.57681194 -17.88778114 1.40500355 C-12.58010007 -2.77885476 -5.99047217 -2.9387222 0 0 Z " fill="#FE9B10" transform="translate(518.3125,309.625)"/>
<path d="M0 0 C8.1452751 7.38359861 12.60707789 17.4261146 13.17555237 28.38391113 C13.23114718 32.54909076 13.22519673 36.70976064 13.1953125 40.875 C13.19157672 42.41056127 13.18873242 43.94612494 13.18673706 45.48168945 C13.17914503 49.49955975 13.15953525 53.51728266 13.1373291 57.53509521 C13.11677459 61.64447029 13.10771491 65.75386945 13.09765625 69.86328125 C13.07628461 77.90892893 13.04113925 85.95442909 13 94 C5.41 94 -2.18 94 -10 94 C-10.029729 91.45091919 -10.029729 91.45091919 -10.06005859 88.8503418 C-10.12821505 83.19449441 -10.20501634 77.53880712 -10.28752708 71.88315105 C-10.33717567 68.45884323 -10.38350432 65.03456166 -10.421875 61.61010742 C-10.46628322 57.66047796 -10.52579854 53.71114112 -10.5859375 49.76171875 C-10.59748871 48.54981369 -10.60903992 47.33790863 -10.62094116 46.08927917 C-10.72252513 30.39501247 -10.72252513 30.39501247 -18 17 C-23.41504986 14.20987261 -29.05411501 14.22980764 -35 15 C-40.58217895 17.3110932 -44.93101138 20.88377773 -47.65551758 26.27734375 C-49.82455224 32.50020014 -49.48206142 39.05017887 -49.51171875 45.5625 C-49.52859005 46.96355742 -49.54674354 48.36459993 -49.56611633 49.765625 C-49.61335717 53.42827696 -49.64333308 57.09086846 -49.66955566 60.75372314 C-49.69949312 64.50130145 -49.74597765 68.24867189 -49.79101562 71.99609375 C-49.87675343 79.33064314 -49.94269659 86.66516324 -50 94 C-57.59 94 -65.18 94 -73 94 C-73 61.33 -73 28.66 -73 -5 C-65.74 -5 -58.48 -5 -51 -5 C-50.67 -2.36 -50.34 0.28 -50 3 C-49.030625 2.0925 -48.06125 1.185 -47.0625 0.25 C-33.33550248 -11.52793094 -14.06007785 -10.49850184 0 0 Z " fill="#FEFDFC" transform="translate(676,624)"/>
<path d="M0 0 C4.08164249 2.07792709 6.33338181 3.7532272 8 8 C8.25447559 10.41477871 8.25447559 10.41477871 8.26069641 13.15489197 C8.26778122 14.19651993 8.27486603 15.23814789 8.28216553 16.31134033 C8.27968811 17.44859558 8.27721069 18.58585083 8.2746582 19.75756836 C8.2823246 21.56056145 8.2823246 21.56056145 8.29014587 23.39997864 C8.30166415 26.69344392 8.3041155 29.98665752 8.30158257 33.28012538 C8.30051231 36.03112255 8.30539764 38.78209654 8.310188 41.53308874 C8.32128036 48.02394857 8.32172212 54.51475052 8.31567383 61.00561523 C8.30963331 67.69829589 8.3219475 74.39076636 8.3432439 81.08341116 C8.36086567 86.8330052 8.36686036 92.58253237 8.36360615 98.33215243 C8.36179406 101.76459854 8.36442192 105.1968947 8.37832069 108.62931633 C8.39324146 112.45730703 8.38392384 116.28503048 8.37231445 120.11303711 C8.38378006 121.81588364 8.38378006 121.81588364 8.39547729 123.5531311 C8.38846298 124.59757889 8.38144867 125.64202667 8.3742218 126.71812439 C8.37438954 127.62273879 8.37455729 128.52735319 8.37473011 129.45938015 C7.91396219 132.5833248 6.83686709 134.44988439 5 137 C0.49061013 140.04121642 -3.69265723 140.93222787 -9 140 C-13.46121883 137.89565149 -15.56562405 135.76192674 -17.40077591 131.18663216 C-18.63875282 126.66912332 -18.41438467 122.0284437 -18.38818359 117.37670898 C-18.39606903 115.64862 -18.39606903 115.64862 -18.40411377 113.88562012 C-18.41728511 110.0889722 -18.40858599 106.29274571 -18.3984375 102.49609375 C-18.40045891 99.85246195 -18.4033709 97.2088307 -18.40713501 94.56520081 C-18.41258258 89.02983049 -18.4054265 83.49458053 -18.39111328 77.95922852 C-18.3747805 71.56925301 -18.38008366 65.17956461 -18.3965925 58.78959602 C-18.41186987 52.62847631 -18.41022392 46.46748341 -18.4014473 40.30635262 C-18.3994466 37.69048078 -18.40189995 35.0746016 -18.40888596 32.45873833 C-18.41650617 28.80359362 -18.40488759 25.14900015 -18.38818359 21.49389648 C-18.39425629 20.41372757 -18.40032898 19.33355865 -18.40658569 18.22065735 C-18.36022449 12.74346801 -18.16494059 8.69021778 -15 4 C-10.34579205 -0.21095005 -6.04945485 -1.08219228 0 0 Z " fill="#FE9B10" transform="translate(557,346)"/>
<path d="M0 0 C3.50911167 3.10107543 5.39100397 5.9215115 5.96514702 10.67251396 C6.08511024 13.49723414 6.1042122 16.30725408 6.09155273 19.13452148 C6.09841599 20.20679993 6.10527924 21.27907837 6.11235046 22.3838501 C6.13062217 25.9214001 6.12678029 29.45850677 6.12109375 32.99609375 C6.12565532 35.45939783 6.13096082 37.92270063 6.13697815 40.38600159 C6.14590998 45.54653089 6.14348511 50.70690545 6.13354492 55.86743164 C6.12205476 62.47620418 6.1422678 69.08444245 6.17146206 75.6931448 C6.18981956 80.7795602 6.18953244 85.86584746 6.18382454 90.95228767 C6.18367127 93.38871065 6.18971985 95.82514229 6.20211601 98.26153374 C6.21701514 101.67005686 6.20635564 105.07759151 6.18920898 108.48608398 C6.19887695 109.48942276 6.20854492 110.49276154 6.21850586 111.52650452 C6.15391916 117.66670503 5.35895479 121.38834091 1.6875 126.375 C-2.96727283 129.29564178 -6.89604449 129.89423735 -12.2265625 129.09375 C-16.42996777 127.64538564 -18.37480855 124.2503829 -20.3125 120.375 C-20.41522162 118.86828758 -20.45627408 117.35716085 -20.46640015 115.84698486 C-20.47930084 114.41704697 -20.47930084 114.41704697 -20.49246216 112.95822144 C-20.49672211 111.90885406 -20.50098206 110.85948669 -20.50537109 109.77832031 C-20.51354858 108.67575897 -20.52172607 107.57319763 -20.53015137 106.43722534 C-20.55503437 102.77586415 -20.57152881 99.11454179 -20.5859375 95.453125 C-20.59126118 94.20473595 -20.59658485 92.95634689 -20.60206985 91.67012787 C-20.62330566 86.4235429 -20.64243521 81.17696379 -20.65369225 75.93034744 C-20.66992325 68.41517504 -20.703078 60.90052035 -20.76009309 53.38554311 C-20.80349817 47.46208922 -20.81944099 41.53875058 -20.82582474 35.61513519 C-20.83254935 33.09691432 -20.84780252 30.57870133 -20.87171555 28.06058502 C-20.90327304 24.53640775 -20.90341718 21.01353882 -20.89599609 17.48925781 C-20.91240143 16.44798737 -20.92880676 15.40671692 -20.94570923 14.33389282 C-20.90599388 9.72869187 -20.8720212 6.42932552 -17.88931274 2.76629639 C-12.41935933 -2.30985044 -6.80155721 -3.33661297 0 0 Z " fill="#FE9D10" transform="translate(477.3125,346.625)"/>
<path d="M0 0 C0.18451025 16.8929385 0.18451025 16.8929385 -1 24 C-2.46759766 23.91298828 -2.46759766 23.91298828 -3.96484375 23.82421875 C-14.01782537 23.42393302 -14.01782537 23.42393302 -23.1328125 27.25 C-30.12073521 33.79935016 -32.9991589 42.50643861 -33.31884766 51.84350586 C-33.360195 54.13379851 -33.39138874 56.42429012 -33.4140625 58.71484375 C-33.43342865 59.92572159 -33.4527948 61.13659943 -33.4727478 62.38417053 C-33.53232038 66.23520967 -33.57884016 70.08627905 -33.625 73.9375 C-33.66320027 76.55535127 -33.70225318 79.17319024 -33.7421875 81.79101562 C-33.83960132 88.19394489 -33.91934919 94.59675002 -34 101 C-41.92 101 -49.84 101 -58 101 C-58 68.33 -58 35.66 -58 2 C-50.74 2 -43.48 2 -36 2 C-36 6.62 -36 11.24 -36 16 C-35.34 16 -34.68 16 -34 16 C-33.75507812 15.26007812 -33.51015625 14.52015625 -33.2578125 13.7578125 C-30.69218058 8.132545 -24.9648244 3.57426124 -19.375 1 C-13.27271209 -0.95522286 -6.3390315 -0.22285658 0 0 Z " fill="#FEFCFA" transform="translate(932,617)"/>
<path d="M0 0 C1.05445313 -0.00257813 2.10890625 -0.00515625 3.1953125 -0.0078125 C5.875 0.125 5.875 0.125 7.875 1.125 C7.875 8.385 7.875 15.645 7.875 23.125 C-0.75 23.875 -0.75 23.875 -3.43212891 24.08105469 C-9.60064214 24.69471277 -13.67666255 26.38328878 -17.91796875 31.1328125 C-18.37816406 31.83148437 -18.83835937 32.53015625 -19.3125 33.25 C-20.01439453 34.27480469 -20.01439453 34.27480469 -20.73046875 35.3203125 C-24.83453595 43.57443084 -25.58416584 51.58523017 -25.63671875 60.6953125 C-25.65466995 61.85755341 -25.67262115 63.01979431 -25.69111633 64.21725464 C-25.74488705 67.89480056 -25.77900868 71.57221919 -25.8125 75.25 C-25.84570235 77.75783009 -25.88019467 80.26564345 -25.91601562 82.7734375 C-26.00299965 88.89063998 -26.06335516 95.00728092 -26.125 101.125 C-33.715 101.125 -41.305 101.125 -49.125 101.125 C-49.125 68.455 -49.125 35.785 -49.125 2.125 C-41.865 2.125 -34.605 2.125 -27.125 2.125 C-27.125 6.745 -27.125 11.365 -27.125 16.125 C-26.465 16.125 -25.805 16.125 -25.125 16.125 C-25.063125 15.58875 -25.00125 15.0525 -24.9375 14.5 C-22.75316503 8.11502085 -17.98131193 5.14337155 -12.30859375 2.10546875 C-8.13594725 0.23188329 -4.56882535 -0.01122562 0 0 Z " fill="#FEFEFD" transform="translate(854.125,616.875)"/>
<path d="M0 0 C5.36971247 3.24680289 8.79291682 8.88757032 10.55078125 14.87646484 C12.75265909 25.28512434 12.40261514 39.18728118 6.55859375 48.23046875 C2.03447 53.9932157 -3.21002783 57.35290749 -10.515625 58.33984375 C-17.45300905 58.60584774 -22.75096464 56.88897404 -28.6875 53.4375 C-37.22500812 44.43850496 -37.46252005 33.36753343 -37.2734375 21.69140625 C-36.96969475 14.10234862 -34.81608508 8.66467064 -29.6875 3.0625 C-21.19895368 -4.54668317 -9.97527195 -5.25014313 0 0 Z " fill="#F96715" transform="translate(363,641)"/>
<path d="M0 0 C6.78500035 4.0202185 10.6223426 9.92006216 12.625 17.4375 C14.64734387 27.54921933 14.4623017 38.65606165 9.265625 47.83984375 C4.76131396 54.07390311 0.32851054 57.89679789 -7.375 59.4375 C-14.64168108 60.45239959 -20.43853941 58.76869319 -26.375 54.4375 C-28.92403486 51.66890541 -30.69155193 48.79328428 -32.375 45.4375 C-32.71402344 44.78265625 -33.05304688 44.1278125 -33.40234375 43.453125 C-37.05505162 34.76742334 -36.95589278 22.51885869 -33.6875 13.75 C-30.30086247 6.83610332 -26.18335274 2.575307 -19.19140625 -0.64453125 C-12.84756173 -2.71221982 -6.15213171 -2.70036316 0 0 Z " fill="#F96516" transform="translate(256.375,639.5625)"/>
<path d="M0 0 C3.79697787 2.17661152 6.35387277 4.9357666 8 9 C8.26742554 11.1869812 8.26742554 11.1869812 8.29052734 13.58154297 C8.3096669 14.93347244 8.3096669 14.93347244 8.32919312 16.31271362 C8.33141876 17.27944 8.33364441 18.24616638 8.3359375 19.2421875 C8.3425943 20.24331573 8.3492511 21.24444397 8.35610962 22.27590942 C8.36622817 24.39241704 8.37092689 26.5089565 8.37060547 28.62548828 C8.37497475 31.85633177 8.4112928 35.08580473 8.44921875 38.31640625 C8.4550879 40.37499534 8.45905663 42.4335909 8.4609375 44.4921875 C8.47530853 45.45486542 8.48967957 46.41754333 8.50448608 47.40939331 C8.46584729 53.10851996 7.89629969 56.52666801 4 61 C-0.48218218 64.05603331 -4.70296922 64.9409895 -10 64 C-15.00251678 61.54593517 -16.9919052 59.13332085 -19 54 C-19.43342789 50.67550651 -19.44440435 47.38449476 -19.43359375 44.03515625 C-19.4388356 43.08362167 -19.44407745 42.1320871 -19.44947815 41.15171814 C-19.45588251 39.14550754 -19.45458195 37.1392593 -19.44604492 35.13305664 C-19.43753659 32.07564961 -19.46631611 29.02011329 -19.49804688 25.96289062 C-19.49965921 24.00781306 -19.49908074 22.0527322 -19.49609375 20.09765625 C-19.50732773 19.19016129 -19.51856171 18.28266632 -19.53013611 17.34767151 C-19.46509689 11.37813289 -18.46039761 7.89863896 -15 3 C-10.20994615 -1.45586405 -6.07145049 -1.88986115 0 0 Z " fill="#FEA011" transform="translate(598,383)"/>
<path d="M0 0 C3.43403788 2.00011167 6.21175747 4.42351494 8 8 C8.11430157 9.41245052 8.16932493 10.82995395 8.19287109 12.24682617 C8.21696548 13.56410957 8.21696548 13.56410957 8.24154663 14.90800476 C8.28607429 18.93613909 8.327084 22.96410845 8.35009766 26.99243164 C8.36663032 29.11363721 8.39388459 31.23478768 8.43212891 33.35571289 C8.4870633 36.41842474 8.5087997 39.47982968 8.5234375 42.54296875 C8.54610687 43.48488571 8.56877625 44.42680267 8.59213257 45.39726257 C8.57137983 51.90662075 7.31302687 55.09245277 3 60 C-0.02635657 62.40021383 -3.23155347 62.36630536 -7.04296875 62.24609375 C-11.29060498 61.71195985 -13.41234366 59.69319434 -16.10302734 56.51928711 C-18.62946705 51.83220495 -18.61182687 48.06112949 -18.6015625 42.81640625 C-18.61013275 41.84267563 -18.618703 40.86894501 -18.62753296 39.8657074 C-18.63898621 37.81244 -18.64004459 35.75909147 -18.63134766 33.70581055 C-18.62502574 30.57524396 -18.67197634 27.44845913 -18.72265625 24.31835938 C-18.72720279 22.31771308 -18.72860897 20.31705667 -18.7265625 18.31640625 C-18.74498199 17.38703751 -18.76340149 16.45766876 -18.78237915 15.50013733 C-18.69929516 9.62417859 -17.5924413 6.51581647 -13.48226929 2.26622009 C-9.62125765 -1.0320271 -4.81158869 -0.78278085 0 0 Z " fill="#FEA011" transform="translate(436,379)"/>
<path d="M0 0 C1.01771484 0.00902344 2.03542969 0.01804687 3.08398438 0.02734375 C5.57707156 0.05075302 8.06965859 0.083543 10.5625 0.125 C9.75906108 9.42193608 7.89868785 15.83683898 0.5625 22.125 C-6.69329022 27.34916896 -12.62118796 27.91565206 -21.4375 27.125 C-24.75207741 25.9447169 -26.6774743 24.12685206 -28.8125 21.3125 C-30.1363721 16.67894765 -30.00071778 13.27396427 -27.875 8.9375 C-20.48124244 0.40624128 -10.63756517 -0.1799458 0 0 Z " fill="#FC7215" transform="translate(753.4375,673.875)"/>
<path d="M0 0 C0.68578125 -0.01998047 1.3715625 -0.03996094 2.078125 -0.06054688 C7.20612006 -0.05565375 10.04819249 1.25522455 14 4.4375 C18.86034969 9.52391247 22 14.26663897 22 21.4375 C6.82 21.4375 -8.36 21.4375 -24 21.4375 C-20.60406091 10.11770305 -20.60406091 10.11770305 -17.6875 7 C-16.85798828 6.07380859 -16.85798828 6.07380859 -16.01171875 5.12890625 C-11.03014617 0.9405161 -6.37513669 -0.06590837 0 0 Z " fill="#FB6B13" transform="translate(545,636.5625)"/>
<path d="M0 0 C4 2 4 2 6 4 C5.01 4 4.02 4 3 4 C2.9845388 4.82352211 2.9845388 4.82352211 2.96876526 5.66368103 C2.86092053 11.35721281 2.74630551 17.05057921 2.62768555 22.74389648 C2.58426577 24.87114007 2.54259607 26.9984201 2.50268555 29.12573242 C2.44515293 32.17638151 2.38141033 35.22684589 2.31640625 38.27734375 C2.29133751 39.71327126 2.29133751 39.71327126 2.26576233 41.1782074 C2.24581711 42.05904495 2.22587189 42.93988251 2.20532227 43.84741211 C2.18977798 44.62684677 2.1742337 45.40628143 2.15821838 46.20933533 C2 48 2 48 1 49 C-0.85369611 49.08737645 -2.71067541 49.10698153 -4.56640625 49.09765625 C-5.69111328 49.09443359 -6.81582031 49.09121094 -7.97460938 49.08789062 C-9.15861328 49.07951172 -10.34261719 49.07113281 -11.5625 49.0625 C-12.75037109 49.05798828 -13.93824219 49.05347656 -15.16210938 49.04882812 C-18.10812226 49.03699675 -21.05403681 49.02051287 -24 49 C-24 48.67 -24 48.34 -24 48 C-16.08 48 -8.16 48 0 48 C0 32.16 0 16.32 0 0 Z " fill="#F75213" transform="translate(221,711)"/>
<path d="M0 0 C1.64558291 3.12809004 2.87819145 6.3205214 4.125 9.625 C9.58242435 22.68781456 18.74689058 30.51354333 31.625 35.9375 C33.41186233 36.63739192 35.20187764 37.32956606 37 38 C37 38.66 37 39.32 37 40 C25.38859363 38.12106333 17.06603438 31.03836359 9 23 C8.46890625 22.55785156 7.9378125 22.11570312 7.390625 21.66015625 C5.1585511 18.99546129 4.06440042 15.82739218 2.8125 12.625 C2.40354492 11.635 2.40354492 11.635 1.98632812 10.625 C0.53029474 6.96119669 -0.34310106 3.94947438 0 0 Z " fill="#F84C11" transform="translate(83,681)"/>
<path d="M0 0 C9 2.25 9 2.25 12 5 C8.87709365 4.51421457 6.00419641 4.0013988 3 3 C1.73374576 6.79876271 1.76701453 10.42421926 1.68359375 14.38671875 C1.66281265 15.20372757 1.64203156 16.02073639 1.62062073 16.86250305 C1.55526921 19.47075034 1.49630727 22.07909775 1.4375 24.6875 C1.39430108 26.45639054 1.35068635 28.22527097 1.30664062 29.99414062 C1.19960257 34.32932463 1.09829456 38.66460929 1 43 C0.67 43 0.34 43 0 43 C0 28.81 0 14.62 0 0 Z " fill="#F86A1E" transform="translate(223,714)"/>
<path d="M0 0 C1.98 0.99 1.98 0.99 4 2 C3.67 2.66 3.34 3.32 3 4 C2.93944113 5.45449754 2.93968016 6.91180334 2.97265625 8.3671875 C2.98619141 9.24802002 2.99972656 10.12885254 3.01367188 11.03637695 C3.02978516 11.97312256 3.04589844 12.90986816 3.0625 13.875 C3.14376951 21.8306079 2.80375564 29.2213038 1 37 C0.67 37 0.34 37 0 37 C0 24.79 0 12.58 0 0 Z " fill="#F95611" transform="translate(292,649)"/>
<path d="M0 0 C5.86064261 0.81539375 9.1432888 3.64409027 13 8 C14.99193467 11.40127007 17 14.98812033 17 19 C23.435 18.505 23.435 18.505 30 18 C27 21 27 21 25 22 C25 21.34 25 20.68 25 20 C21.04 20.495 21.04 20.495 17 21 C16.56429687 20.11957031 16.12859375 19.23914063 15.6796875 18.33203125 C11.2124107 9.53799984 11.2124107 9.53799984 4 3 C3.21625 2.401875 2.4325 1.80375 1.625 1.1875 C1.08875 0.795625 0.5525 0.40375 0 0 Z " fill="#F84D0A" transform="translate(144,601)"/>
<path d="M0 0 C3.92725691 1.16756287 7.55256133 2.69629484 11.25 4.4375 C16.38371637 6.81774161 21.53889562 8.54291575 27 10 C27 10.33 27 10.66 27 11 C25.741875 11.020625 24.48375 11.04125 23.1875 11.0625 C22.47980469 11.07410156 21.77210937 11.08570313 21.04296875 11.09765625 C19 11 19 11 16 10 C16 9.34 16 8.68 16 8 C14.89591797 7.88785156 14.89591797 7.88785156 13.76953125 7.7734375 C4.80691724 6.56579334 4.80691724 6.56579334 1.8125 2.875 C1.214375 1.92625 0.61625 0.9775 0 0 Z " fill="#F85716" transform="translate(103,648)"/>
<path d="M0 0 C0.99 0.33 1.98 0.66 3 1 C2.67 1.99 2.34 2.98 2 4 C-12.19 4 -26.38 4 -41 4 C-41 3.67 -41 3.34 -41 3 C-27.47 3 -13.94 3 0 3 C0 2.01 0 1.02 0 0 Z " fill="#FC7823" transform="translate(564,653)"/>
<path d="M0 0 C0 0.99 0 1.98 0 3 C-6.36506953 5.86575468 -11.09724599 6.28658695 -18 5.6875 C-18.87011719 5.62626953 -19.74023438 5.56503906 -20.63671875 5.50195312 C-22.75899443 5.35036201 -24.87972585 5.17740197 -27 5 C-27 4.67 -27 4.34 -27 4 C-26.05640625 3.96261719 -25.1128125 3.92523437 -24.140625 3.88671875 C-15.75418336 3.45729252 -8.09768989 2.39764002 0 0 Z " fill="#F85515" transform="translate(267,716)"/>
<path d="M0 0 C0.66 0.33 1.32 0.66 2 1 C1.25234375 1.45890625 0.5046875 1.9178125 -0.265625 2.390625 C-1.25046875 3.00421875 -2.2353125 3.6178125 -3.25 4.25 C-4.22453125 4.85328125 -5.1990625 5.4565625 -6.203125 6.078125 C-8.79705245 7.86054442 -10.86377619 9.70101628 -13 12 C-13.1953125 5.9453125 -13.1953125 5.9453125 -13 4 C-12.34 3.34 -11.68 2.68 -11 2 C-11 2.66 -11 3.32 -11 4 C-7.86373323 3.5387843 -5.66757049 2.83052613 -2.8125 1.375 C-1.884375 0.92125 -0.95625 0.4675 0 0 Z " fill="#FA5710" transform="translate(234,617)"/>
<path d="M0 0 C0.33 0 0.66 0 1 0 C1.33 1.98 1.66 3.96 2 6 C4.31 5.34 6.62 4.68 9 4 C8.57847656 4.54269531 8.15695312 5.08539062 7.72265625 5.64453125 C7.17480469 6.35996094 6.62695312 7.07539062 6.0625 7.8125 C5.51722656 8.52019531 4.97195313 9.22789062 4.41015625 9.95703125 C2.83143752 12.04125052 2.83143752 12.04125052 2 15 C1.34 15 0.68 15 0 15 C0 10.05 0 5.1 0 0 Z " fill="#FD6409" transform="translate(827,618)"/>
<path d="M0 0 C4.22913424 3.91691628 7.01875547 8.48626098 10.09765625 13.3203125 C11.89213523 16.18618772 11.89213523 16.18618772 15 18 C15.1875 20.625 15.1875 20.625 15 23 C10.90128046 19.35018784 8.1804939 14.95918469 5.25 10.375 C4.74339844 9.59898437 4.23679687 8.82296875 3.71484375 8.0234375 C0 2.25591728 0 2.25591728 0 0 Z " fill="#FA5B12" transform="translate(487,694)"/>
<path d="M0 0 C0.33 0 0.66 0 1 0 C1.144375 1.11375 1.28875 2.2275 1.4375 3.375 C1.78372035 6.82142047 1.78372035 6.82142047 3 9 C2.67 9.66 2.34 10.32 2 11 C3.32 11.33 4.64 11.66 6 12 C6 12.99 6 13.98 6 15 C8.4390706 17.20142332 8.4390706 17.20142332 11 19 C7.2751328 18.89044508 5.25370533 17.67901433 2.6875 15.125 C-1.08048962 10.5089718 -0.55449308 5.67841989 0 0 Z " fill="#F8500E" transform="translate(114,612)"/>
<path d="M0 0 C0.66 0 1.32 0 2 0 C2.45858928 5.73236598 1.65645061 8.55296547 -2 13 C-4.5625 15.4375 -4.5625 15.4375 -7 17 C-7.99 16.67 -8.98 16.34 -10 16 C-9.05125 15.38125 -8.1025 14.7625 -7.125 14.125 C-3.19931206 11.61878709 -3.19931206 11.61878709 -1.3671875 7.6171875 C-1.20476562 6.71226562 -1.04234375 5.80734375 -0.875 4.875 C-0.70742187 3.96492187 -0.53984375 3.05484375 -0.3671875 2.1171875 C-0.24601563 1.41851563 -0.12484375 0.71984375 0 0 Z " fill="#F84E0D" transform="translate(159,680)"/>
<path d="M0 0 C0.99 0.495 0.99 0.495 2 1 C2.59355614 3.64860427 2.74209269 6.29197322 3 9 C3.66 8.67 4.32 8.34 5 8 C3.125 12.75 3.125 12.75 2 15 C1.34 15 0.68 15 0 15 C0 10.05 0 5.1 0 0 Z " fill="#FD6B07" transform="translate(896,618)"/>
<path d="M0 0 C5.68184434 1.23425832 8.65533149 3.00143033 12.9375 7.125 C13.67709961 7.82689453 13.67709961 7.82689453 14.43164062 8.54296875 C15.63144539 9.68453057 16.81725031 10.84077697 18 12 C17.67 12.66 17.34 13.32 17 14 C16.41605469 13.34644531 16.41605469 13.34644531 15.8203125 12.6796875 C11.62354535 8.21216117 7.2909335 5.14576621 1.94140625 2.1640625 C1.30074219 1.77992188 0.66007812 1.39578125 0 1 C0 0.67 0 0.34 0 0 Z " fill="#FA5811" transform="translate(266,617)"/>
<path d="M0 0 C0.33 0 0.66 0 1 0 C1.89635331 7.83703499 2.19386419 14.38600077 0 22 C-2.10179407 18.53822153 -2.10179407 18.53822153 -1.66015625 16.203125 C-1.33337891 15.11257813 -1.33337891 15.11257813 -1 14 C-0.77882441 11.5861824 -0.59427758 9.16885403 -0.4375 6.75 C-0.35371094 5.48671875 -0.26992187 4.2234375 -0.18359375 2.921875 C-0.12300781 1.95765625 -0.06242188 0.9934375 0 0 Z " fill="#F87338" transform="translate(185,675)"/>
<path d="M0 0 C0.66 0.33 1.32 0.66 2 1 C-1.51822249 5.43601966 -5.75390186 6.52033129 -11 8 C-11 7.34 -11 6.68 -11 6 C-9.21385682 4.96953278 -7.42089982 3.95086764 -5.625 2.9375 C-4.62726563 2.36902344 -3.62953125 1.80054688 -2.6015625 1.21484375 C-1.74304688 0.81394531 -0.88453125 0.41304687 0 0 Z " fill="#F84F0E" transform="translate(170,711)"/>
<path d="M0 0 C0.33 0.66 0.66 1.32 1 2 C-1.98334854 7.01202555 -5.43951988 10.38748484 -10 14 C-8.43632643 10.47761953 -6.30504111 7.72876006 -3.875 4.75 C-3.15054687 3.85796875 -2.42609375 2.9659375 -1.6796875 2.046875 C-0.84824219 1.03367187 -0.84824219 1.03367187 0 0 Z " fill="#FA4F0D" transform="translate(286,699)"/>
<path d="M0 0 C4.55737263 0.43820891 7.57653445 0.85041169 11 4 C7.87709365 3.51421457 5.00419641 3.0013988 2 2 C1.67 2.99 1.34 3.98 1 5 C0.67 5 0.34 5 0 5 C0 3.35 0 1.7 0 0 Z " fill="#F85915" transform="translate(224,715)"/>
<path d="M0 0 C0.66 0.33 1.32 0.66 2 1 C0.3790787 2.17232685 -1.24686833 3.3377077 -2.875 4.5 C-3.77992187 5.1496875 -4.68484375 5.799375 -5.6171875 6.46875 C-8 8 -8 8 -10 8 C-10 7.01 -10 6.02 -10 5 C-9.278125 4.731875 -8.55625 4.46375 -7.8125 4.1875 C-4.94366924 3.06484842 -4.94366924 3.06484842 -2.3125 1.3125 C-1.1678125 0.6628125 -1.1678125 0.6628125 0 0 Z " fill="#F95412" transform="translate(111,582)"/>
<path d="M0 0 C2.64 0.66 5.28 1.32 8 2 C8 2.66 8 3.32 8 4 C5.36 4 2.72 4 0 4 C0 2.68 0 1.36 0 0 Z " fill="#F85813" transform="translate(138,660)"/>
<path d="M0 0 C0.33 0.66 0.66 1.32 1 2 C2.65 2 4.3 2 6 2 C2.09971775 4.60018816 -1.47434569 4.15085514 -6 4 C-6 3.67 -6 3.34 -6 3 C-5.195625 2.87625 -4.39125 2.7525 -3.5625 2.625 C-2.716875 2.41875 -1.87125 2.2125 -1 2 C-0.67 1.34 -0.34 0.68 0 0 Z " fill="#F74908" transform="translate(92,672)"/>
</svg>
